<svg xmlns="http://www.w3.org/2000/svg" xmlns:xlink="http://www.w3.org/1999/xlink" width="1650" height="2100" viewBox="0 0 1650 2100">
  <defs>
    <clipPath id="clip-To_Kill_a_Mockingbird">
      <rect width="1650" height="2100"/>
    </clipPath>
  </defs>
  <g id="To_Kill_a_Mockingbird" data-name="To Kill a Mockingbird" clip-path="url(#clip-To_Kill_a_Mockingbird)">
    <rect width="1650" height="2100" fill="#d34d28"/>
    <text id="To_Kill_a_Mockingbird-2" data-name="To Kill a 
Mockingbird" transform="translate(825 409)" fill="#eceaec" font-size="200" font-family="Arial-BoldMT, Arial" font-weight="700"><tspan x="-409.277" y="0">To Kill a </tspan><tspan x="-594.434" y="220">Mockingbird</tspan></text>
    <g id="Group_43" data-name="Group 43" transform="translate(0 59)">
      <g id="Group_44" data-name="Group 44">
        <path id="Path_298" data-name="Path 298" d="M465,1080s-86,56-109,94-44,38,4,51,87,27,104,42,97,59,157,84,108,21,135,0l29-22,9,9a34.361,34.361,0,0,0-3,14c0,8-23,24-23,24s60,33,143,38,242-43,305-27c0,0,28-6,33-17s7-27,7-27l1,24s36,0,44-13,11-17,11-17-7,19-2,18,26,1,26,1-40,4-43,11,7,7,7,7-31-3-40,3-30,15-27,19,43,10,51,16,107,68,107,68-86-52-103-52c0,0,16,9,22,27l6,18s-31-43-46-48-42-17-42-17,20,30,23,46c0,0-25-50-65-51s-214,51-282,36-48,1-39,9,54,9,63,11a94.406,94.406,0,0,0,18,2l-3,5s-39-4-46-5-34-13-28-4,18,14,18,14-24-10-33-22c0,0-32-39-98-53s-61,13-52,21,22,21,22,21-29-17-38-17-144-67-244-115-163-25-228,16-85,58-70,64,67,6,80,9,28-12,38-20,16-7,16-7-14,12-19,17-14,3-9,12,36,24,41,40c0,0-44-35-58-36s-3,8,0,18,3,13,3,13-5-29-36-30-55,6-72,3S0,1514,0,1514V1355s78-28,93-63,49-112,48-134a73.458,73.458,0,0,0-12-37s19,15,24,37c0,0,12-27,46-37,0,0-43,28-72,153,0,0-2,12,46-25s66-39,82-59,85-71,85-71,57-30,125-39" fill="#1a0f17"/>
        <path id="Path_299" data-name="Path 299" d="M252.583,1093.06c-25.085,28.319-65.385,33.592-67.5,31.716-1.512-1.34-1.747-42.518,23.338-70.837s67.2-31.984,67.5-31.715,1.748,42.517-23.337,70.836" fill="#96c785"/>
        <path id="Path_300" data-name="Path 300" d="M1398.514,1376.931c-37.743,2.582-70.161-21.934-70.354-24.756-.139-2.016,28.584-31.524,66.326-34.106s70.327,24.352,70.354,24.755-28.584,31.525-66.326,34.107" fill="#96c785"/>
        <path id="Path_301" data-name="Path 301" d="M1413.73,1516.912c-21.154-12.213-29.693-37.028-28.779-38.61.652-1.13,26.672-6.594,47.826,5.619s28.91,38.384,28.78,38.61-26.673,6.594-47.827-5.619" fill="#96c785"/>
        <path id="Path_302" data-name="Path 302" d="M1379.642,1463.87c-28.963-5.638-48.467-30.627-48.045-32.792.3-1.547,27.875-18.014,56.837-12.377s48.106,32.483,48.046,32.793-27.875,18.014-56.838,12.376" fill="#96c785"/>
        <path id="Path_303" data-name="Path 303" d="M321.417,1366.916c-24.709,16.553-56.41,12.552-57.648,10.7-.884-1.32,7.123-32.687,31.832-49.24s57.472-10.969,57.648-10.7-7.123,32.687-31.832,49.24" fill="#96c785"/>
        <path id="Path_304" data-name="Path 304" d="M514.417,1072.916c-24.709,16.553-56.41,12.552-57.648,10.7-.884-1.32,7.123-32.687,31.832-49.24s57.472-10.969,57.648-10.7-7.123,32.687-31.832,49.24" fill="#96c785"/>
        <path id="Path_305" data-name="Path 305" d="M485.636,1102.859c-17.76-3.091-29.978-18.117-29.747-19.445.165-.949,16.808-11.343,34.567-8.252s29.78,19.255,29.747,19.445-16.807,11.343-34.567,8.252" fill="#96c785"/>
        <path id="Path_306" data-name="Path 306" d="M304.914,1466.732c-25.757-14.87-36.153-45.084-35.041-47.009.794-1.377,32.476-8.03,58.233,6.841s35.2,46.735,35.041,47.009-32.476,8.031-58.233-6.841" fill="#96c785"/>
        <path id="Path_307" data-name="Path 307" d="M744.58,1490.022c-27.137-22.125-33.538-59.193-31.884-61.222,1.182-1.45,39.252-3.225,66.389,18.9s32.121,60.932,31.884,61.222-39.251,3.225-66.389-18.9" fill="#96c785"/>
        <path id="Path_308" data-name="Path 308" d="M237.242,1454.83c-8.524-17.19-3.315-37.134-2.03-37.772.918-.455,20.314,7.289,28.838,24.478s2.214,37.681,2.03,37.772-20.314-7.288-28.838-24.478" fill="#96c785"/>
        <path id="Path_309" data-name="Path 309" d="M685.167,1482.951c-4.831-18.569,4.343-37.028,5.732-37.389.992-.258,18.4,11.285,23.227,29.854s-5.533,37.338-5.732,37.39-18.4-11.286-23.227-29.855" fill="#96c785"/>
        <path id="Path_310" data-name="Path 310" d="M1322.427,1401.2c-17.982-6.693-27.841-24.8-27.34-26.141.357-.96,19.8-8.6,37.778-1.9s27.412,25.949,27.34,26.141-19.8,8.6-37.778,1.9" fill="#96c785"/>
        <path id="Path_311" data-name="Path 311" d="M1332.6,1501.057c-11.381-15.448-9.716-35.993-8.561-36.844.825-.608,21.272,3.649,32.652,19.1s8.726,36.724,8.561,36.845-21.272-3.648-32.652-19.1" fill="#96c785"/>
        <path id="Path_312" data-name="Path 312" d="M1354.126,1314.991c-15.292,19.641-41.536,24.782-43,23.639-1.049-.817-2.919-27.847,12.373-47.488s42.8-23.8,43-23.639,2.919,27.847-12.373,47.488" fill="#96c785"/>
        <path id="Path_313" data-name="Path 313" d="M1290.216,1321.231c-7.9,23.6-30.953,37.166-32.718,36.575-1.261-.422-12-25.3-4.093-48.9s32.466-36.66,32.718-36.575,12,25.3,4.093,48.9" fill="#96c785"/>
        <path id="Path_314" data-name="Path 314" d="M1297.962,1476.979c11.654,21.995,5.595,48.042,3.951,48.914-1.175.622-26.6-8.743-38.254-30.738s-4.186-48.79-3.951-48.914,26.6,8.743,38.254,30.738" fill="#96c785"/>
        <path id="Path_315" data-name="Path 315" d="M897.319,1507.05c-22.517-17.3-28.578-47.189-27.285-48.873.923-1.2,31.739-3.538,54.257,13.756s27.47,48.633,27.285,48.873-31.74,3.539-54.257-13.756" fill="#96c785"/>
        <path id="Path_316" data-name="Path 316" d="M132.048,1049.75c18.916,32.763,11.152,72.658,8.7,74.073-1.75,1.01-40.882-11.81-59.8-44.573s-9.053-73.871-8.7-74.073,40.882,11.81,59.8,44.573" fill="#96c785"/>
        <path id="Path_317" data-name="Path 317" d="M721.277,1301.709l90.63-79.532-8.015-2.466s38.842-31.443,46.24-43.774,43.158-45.624,110.36-57.338l28.977-31.443L987,1081.607s17.263-36.992,46.856-39.457,70.9,8.015,72.751,27.126c0,0,25.278,1.234,44.39,22.813,0,0-30.826-2.467-43.157,8.63s-39.655,82.773-43.564,91.326-22.405,64.658-29.187,75.755-38.841,38.226-38.841,38.226-35.759,41.307-78.3,40.073c0,0,65.969,24.045,82,32.677s37.608,12.948,29.593,40.692c0,0-11.714-24.046-35.142-34.526s-83.232-32.06-83.232-32.06,67.2,52.405,69.052,62.886-1.85,16.029-1.85,16.029-11.1-24.044-25.278-34.524S907.47,1353.5,887.741,1353.5s-73.984-4.316-96.179,6.783S681.819,1499,681.819,1499s-18.5-22.195-11.1-39.458c0,0-5.548,7.4-24.661,1.849,0,0-11.714,6.783-32.06,1.234,0,0,153.517-130.706,181.261-170.781,0,0-20.346,25.9-73.984,9.865"/>
      </g>
    </g>
  </g>
</svg>
